<svg xmlns="http://www.w3.org/2000/svg" viewBox="0 0 356.99 110.42"><defs><style>.cls-1{fill:#007ac9;}</style></defs><title>logo intive_white</title><g id="Layer_2" data-name="Layer 2"><g id="Ebene_1" data-name="Ebene 1"><path class="cls-1" d="M104.33,109.31H83.61V63.49c0-10.66-6.94-14.11-11.86-14.11-7,0-14,3.93-14,16.63v43.3H36.83V31.23H57.54V39c3.45-4.63,10-9.72,18.38-9.72,17.47,0,28.41,10.71,28.41,29.09Z"/><rect class="cls-1" x="0.18" width="20.83" height="20.83"/><rect class="cls-1" x="177.07" y="0.03" width="20.83" height="20.83"/><path class="cls-1" d="M.06,31.21h20.8V89.26c0,10.86-7.41,20-20.86,20V97.9c5.52-.8,9.41-3.26,9.41-8.42V83.24H.06Z"/><path class="cls-1" d="M127.24,49.51H114.18V31.23h13V12.07H148v19.2h13.1v18.3H148V77.33c0,7.81,1.62,11.19,10.46,11.19h2.59v20.83H154.8c-21.81,0-27.56-9.28-27.56-27.86Z"/><rect class="cls-1" x="177.05" y="31.27" width="20.82" height="78.11"/><polygon class="cls-1" points="206.25 31.27 227.09 31.27 242.64 81.53 242.88 81.53 258.27 31.27 279.12 31.27 253.14 109.39 232.34 109.39 206.25 31.27"/><path class="cls-1" d="M336.12,59.84c-1.43-6.57-7.86-12.9-18.18-12.9-9.73,0-17,6.78-18.22,12.9Zm18.3,31.3c-9.87,14.8-21.1,19.28-35.88,19.28-21.52,0-39.81-16.64-39.81-40.18,0-20.4,15.68-40.25,39-40.25C341.28,30,357,44.89,357,70.24v5.3H299.47C300.75,85.69,310,91.1,317.94,91.1s13-2.29,18.36-7.8Z"/></g></g></svg>
